<?xml version="1.0" encoding="utf-8"?>
<!-- Generator: Adobe Illustrator 24.0.0, SVG Export Plug-In . SVG Version: 6.00 Build 0)  -->
<svg version="1.1" id="Layer_1" xmlns="http://www.w3.org/2000/svg" xmlns:xlink="http://www.w3.org/1999/xlink" x="0px" y="0px"
	 viewBox="0 0 525 525" style="enable-background:new 0 0 525 525;" xml:space="preserve">
<style type="text/css">
	.st0{fill:none;stroke:#C64328;stroke-width:2;stroke-miterlimit:10;}
</style>
<g>
	<path class="st0" d="M485.3,45.3c18.1,16,27.2,37.5,27.2,64.5c0,21-5.7,39.2-17,54.7c-11.4,15.5-26.4,27.9-45.2,37
		c-16.6,7.9-48.9,19.2-97,34.1c24.5,10.5,42.5,25.5,54.1,44.9c11.6,19.4,17.4,41.6,17.4,66.5c0,27.1-8.1,52.6-24.2,76.7
		c-16.2,24-39.3,43.4-69.5,58s-65.5,22-106.2,22c-38,0-73.3-6.7-105.8-20c-32.6-13.3-58.4-32.3-77.7-57
		c-19.2-24.7-28.8-53.4-28.8-86.2c0-28.8,7.1-53.2,21.3-73.1c14.2-19.9,30.5-34.9,48.8-45.2c18.3-10.3,35.4-17.4,51.1-21.3
		c-21.4-9.2-37.8-21.4-49.1-36.7c-11.4-15.3-17-31.2-17-47.8c0-14.4,4.3-27.9,12.8-40.3s21.2-22.5,38-30.1
		c16.8-7.6,36.8-11.5,60-11.5c29.3,0,52,6.6,68.2,19.7c7.9,6.6,13.9,13.9,18,22c4.1,8.1,6.2,15.8,6.2,23.3
		c0,10.5-3.7,18.9-11.1,25.2c-7.4,6.3-16,9.5-25.6,9.5c-9.2,0-17.2-2.9-23.9-8.8c-6.8-5.9-10.2-13.9-10.2-23.9
		c0-9.6,3.3-17.8,9.8-24.6c6.6-6.8,14.8-10.6,24.9-11.5c-2.2-5.7-7.8-10.6-16.7-14.7c-9-4.1-20-6.2-33.1-6.2
		c-22.7,0-41.1,6.9-55,20.6c-14,13.8-21,32.9-21,57.3c0,29.3,11.1,54.2,33.4,74.7c15.3-2.6,28.8-3.9,40.6-3.9c7.9,0,14.2,1.3,19,3.9
		c4.8,2.6,7.2,6.3,7.2,11.1c0,3.9-1.6,7-4.9,9.2c-3.3,2.2-7.8,3.3-13.4,3.3c-7,0-14.2-1.3-21.6-3.9c-7.4-2.6-16.2-6.1-26.2-10.5
		c-56.8,17-85.2,52.9-85.2,107.5c0,29.3,7.6,54.6,22.9,76c15.3,21.4,36.3,37.7,62.9,48.8c26.6,11.1,56.6,16.7,89.8,16.7
		c31,0,59.7-4.9,86.2-14.7c26.4-9.8,47.4-23.8,62.9-41.9c15.5-18.1,23.3-39.2,23.3-63.2c0-17.5-4.6-35.2-13.8-53.1
		c-9.2-17.9-26.7-31.9-52.4-41.9c-34.1,10.5-59.2,18.8-75.4,24.9c-18.3,7-32.6,15-42.6,23.9c-10.1,9-15.1,20-15.1,33.1
		c0,15.7,6.4,28.4,19.3,38c12.9,9.6,26.5,14.4,41,14.4c7.4,0,15.5-1.3,24.2-3.9c8.7-2.6,13.8-6.1,15.1-10.5
		c-8.3-1.7-15.5-5.2-21.6-10.5c-6.1-5.2-9.2-12.9-9.2-22.9c0-10.5,3.4-18.8,10.2-24.9c6.8-6.1,15.4-9.2,25.9-9.2s18.9,3.3,25.2,9.8
		c6.3,6.6,9.5,15.1,9.5,25.6c0,17.5-8.1,31.2-24.2,41.3c-16.2,10.1-34.1,15.1-53.7,15.1c-21.4,0-40.3-6.4-56.7-19.3
		c-16.4-12.9-24.6-32-24.6-57.3c0-22.3,7.5-41.2,22.6-56.7c15.1-15.5,37.7-28.5,67.8-39l46.5-13.8c26.2-7.4,48.1-14,65.5-19.7
		c17.5-5.7,33.4-11.8,47.8-18.3c21-9.6,35.6-19.4,43.9-29.5c8.3-10,12.5-21.2,12.5-33.4c0-18.3-7.5-34-22.6-46.9
		c-15.1-12.9-32.9-19.3-53.4-19.3c-10.9,0-17.5,2-19.7,5.9c5.7,2.6,10.2,6.9,13.4,12.8s4.9,11.7,4.9,17.4c0,9.2-3.6,16.8-10.8,22.9
		c-7.2,6.1-15.8,9.2-25.9,9.2c-9.2,0-17.3-2.8-24.2-8.5c-7-5.7-10.5-13.8-10.5-24.2c0-15.7,7.3-27.2,22-34.4
		c14.6-7.2,31.3-10.8,50.1-10.8C444.3,21.3,467.2,29.3,485.3,45.3z"/>
</g>
</svg>
